<?xml version="1.0" standalone="no"?>
<!DOCTYPE svg PUBLIC "-//W3C//DTD SVG 20010904//EN"
 "http://www.w3.org/TR/2001/REC-SVG-20010904/DTD/svg10.dtd">
<svg version="1.0" xmlns="http://www.w3.org/2000/svg"
 width="256.000000pt" height="256.000000pt" viewBox="0 0 256.000000 256.000000"
 preserveAspectRatio="xMidYMid meet">
<metadata>
Created by potrace 1.14, written by Peter Selinger 2001-2017
</metadata>
<g transform="translate(0.000000,256.000000) scale(0.100000,-0.100000)"
fill="#000000" stroke="none">
<path d="M1163 2430 c-238 -27 -456 -122 -642 -279 -59 -50 -175 -180 -168
-188 3 -2 28 7 56 21 149 76 370 72 530 -8 48 -25 53 -25 86 -11 58 23 178 45
255 45 316 0 599 -205 697 -505 35 -108 43 -279 18 -390 -21 -94 -89 -233
-149 -303 -25 -30 -46 -56 -46 -59 0 -3 57 -3 128 0 236 9 371 86 457 260 57
115 69 249 40 440 -71 475 -436 859 -907 957 -108 23 -259 31 -355 20z"/>
<path d="M1190 1883 c-14 -2 -42 -9 -63 -14 l-37 -10 24 -32 c77 -103 123
-209 195 -453 105 -359 232 -584 327 -584 34 0 146 126 188 212 54 109 69 184
64 303 -11 230 -139 425 -343 522 -109 52 -251 74 -355 56z"/>
<path d="M605 1844 c-189 -29 -340 -141 -425 -318 -57 -118 -67 -178 -52 -334
7 -70 20 -158 30 -197 151 -569 691 -937 1270 -865 166 21 363 96 503 191 95
64 302 269 287 284 -2 3 -38 -2 -79 -9 -169 -33 -350 -29 -478 10 -43 13 -50
12 -133 -17 -205 -70 -400 -56 -593 44 -116 60 -245 191 -303 307 -64 129 -86
229 -80 370 8 181 68 328 187 462 28 31 48 59 43 61 -12 8 -144 16 -177 11z"/>
<path d="M842 1696 c-183 -193 -221 -451 -101 -694 43 -88 161 -224 178 -206
5 5 17 34 26 64 10 30 70 156 133 280 l115 225 -17 50 c-40 115 -109 239 -167
298 -32 31 -66 57 -77 57 -11 0 -49 -31 -90 -74z"/>
<path d="M1210 1205 c-43 -97 -110 -273 -125 -331 -8 -32 -15 -84 -15 -115 l0
-57 69 -16 c82 -19 188 -21 263 -5 29 6 55 13 57 15 2 2 -17 34 -42 71 -55 81
-92 172 -145 353 l-39 134 -23 -49z"/>
</g>
</svg>
